# xmcd
#
# Track frame offsets: 
#        182
#        15267
#        29367
#        42127
#        57617
#        70077
#        83995
#        96482
#        110260
#        124205
#        135747
#        150960
#        160917
#        170632
#        184197
#        193312
#        206530
#        217945
#        237017
#        248687
#        260620
#        274990
#
# Disc length: 3790 seconds
#
# Revision: 2
# Processed by: cddbd v1.5.2PL0 Copyright (c) Steve Scherf et al.
# Submitted via: ExactAudioCopy v0.95b4
#
DISCID=370ecc16
DTITLE=Tom T. Hall - Greatest Hits Volums I and II
DYEAR=1983
DGENRE=Country
TTITLE0=Homecoming
TTITLE1=Shoeshine Man
TTITLE2=I Miss A Lot Of Trains
TTITLE3=Salute To A Switchblade
TTITLE4=I Washed My Face In The Morning Dew
TTITLE5=Ballad Of Forty Dollars
TTITLE6=The Year That Clayton Delaney Died
TTITLE7=That's How I Got To Memphis
TTITLE8=A Week In A Country Jail
TTITLE9=One Hundred Children
TTITLE10=Me And Jesus
TTITLE11=Country Is
TTITLE12=I Love
TTITLE13=The Little Lady Preacher
TTITLE14=Sneaky Snake
TTITLE15=I Like Beer
TTITLE16=Ravishing Ruby
TTITLE17=Old Dogs, Children, And Watermelon Wine
TTITLE18=Deal
TTITLE19=Who's Gonna Feed Them Hogs
TTITLE20=That Song Is Driving Me Crazy
TTITLE21=I Care
EXTD=
EXTT0=
EXTT1=
EXTT2=
EXTT3=
EXTT4=
EXTT5=
EXTT6=
EXTT7=
EXTT8=
EXTT9=
EXTT10=
EXTT11=
EXTT12=
EXTT13=
EXTT14=
EXTT15=
EXTT16=
EXTT17=
EXTT18=
EXTT19=
EXTT20=
EXTT21=
PLAYORDER=
